<svg width="440" height="415" viewBox="0 0 440 415" fill="none" xmlns="http://www.w3.org/2000/svg">
<mask id="path-1-inside-1_4055_1229" fill="white">
<path d="M0 16C0 7.16343 7.16344 0 16 0H424C432.837 0 440 7.16344 440 16V415H0V16Z"/>
</mask>
<path d="M-1 16C-1 6.61116 6.61116 -1 16 -1H424C433.389 -1 441 6.61116 441 16H439C439 7.71573 432.284 1 424 1H16C7.71573 1 1 7.71573 1 16H-1ZM440 415H0H440ZM-1 415V16C-1 6.61116 6.61116 -1 16 -1V1C7.71573 1 1 7.71573 1 16V415H-1ZM424 -1C433.389 -1 441 6.61116 441 16V415H439V16C439 7.71573 432.284 1 424 1V-1Z" fill="url(#paint0_linear_4055_1229)" mask="url(#path-1-inside-1_4055_1229)"/>
<g clip-path="url(#clip0_4055_1229)">
<path d="M22 12.5H418C423.247 12.5 427.5 16.7533 427.5 22V97.5H12.5V22C12.5 16.7533 16.7533 12.5 22 12.5Z" stroke="#292824" fill="#1C1B17A6"/>
<path d="M427.5 101.5V177C427.5 182.247 423.247 186.5 418 186.5H22C16.7533 186.5 12.5 182.247 12.5 177V101.5H427.5Z" stroke="#292824" fill="#1C1B17A6"/>
<rect x="199" y="79" width="42" height="42" rx="21" fill="#1C1B17"/>
<rect x="199" y="79" width="42" height="42" rx="21" stroke="#09090B" stroke-width="2" stroke-linejoin="bevel"/>
<path d="M219.031 103.969C219.1 104.039 219.156 104.122 219.193 104.213C219.231 104.304 219.251 104.401 219.251 104.5C219.251 104.599 219.231 104.696 219.193 104.787C219.156 104.878 219.1 104.961 219.031 105.031L216.031 108.031C215.961 108.1 215.878 108.156 215.787 108.193C215.696 108.231 215.599 108.251 215.5 108.251C215.401 108.251 215.304 108.231 215.213 108.193C215.122 108.156 215.039 108.1 214.969 108.031L211.969 105.031C211.9 104.961 211.844 104.878 211.807 104.787C211.769 104.696 211.75 104.599 211.75 104.5C211.75 104.401 211.769 104.304 211.807 104.213C211.844 104.122 211.9 104.039 211.969 103.969C212.11 103.829 212.301 103.75 212.5 103.75C212.599 103.75 212.696 103.769 212.787 103.807C212.878 103.844 212.961 103.9 213.031 103.969L214.75 105.69V92.5C214.75 92.3011 214.829 92.1103 214.97 91.9697C215.11 91.829 215.301 91.75 215.5 91.75C215.699 91.75 215.89 91.829 216.03 91.9697C216.171 92.1103 216.25 92.3011 216.25 92.5V105.69L217.969 103.969C218.039 103.9 218.122 103.844 218.213 103.807C218.304 103.769 218.401 103.749 218.5 103.749C218.599 103.749 218.696 103.769 218.787 103.807C218.878 103.844 218.961 103.9 219.031 103.969ZM228.031 94.9694L225.031 91.9694C224.961 91.8997 224.878 91.8443 224.787 91.8066C224.696 91.7688 224.599 91.7494 224.5 91.7494C224.401 91.7494 224.304 91.7688 224.213 91.8066C224.122 91.8443 224.039 91.8997 223.969 91.9694L220.969 94.9694C220.829 95.1101 220.75 95.301 220.75 95.5C220.75 95.699 220.829 95.8899 220.969 96.0306C221.11 96.1714 221.301 96.2504 221.5 96.2504C221.699 96.2504 221.89 96.1714 222.031 96.0306L223.75 94.3103V107.5C223.75 107.699 223.829 107.89 223.97 108.03C224.11 108.171 224.301 108.25 224.5 108.25C224.699 108.25 224.89 108.171 225.03 108.03C225.171 107.89 225.25 107.699 225.25 107.5V94.3103L226.969 96.0306C227.11 96.1714 227.301 96.2504 227.5 96.2504C227.699 96.2504 227.89 96.1714 228.031 96.0306C228.171 95.8899 228.25 95.699 228.25 95.5C228.25 95.301 228.171 95.1101 228.031 94.9694Z" fill="#FAFAF9"/>
</g>
<defs>
<linearGradient id="paint0_linear_4055_1229" x1="220" y1="0" x2="220" y2="415" gradientUnits="userSpaceOnUse">
<stop offset="0.8" stop-color="#292824"/>
<stop offset="1" stop-color="#100E0A"/>
</linearGradient>
<clipPath id="clip0_4055_1229">
<rect width="416" height="175" fill="white" transform="translate(12 12)"/>
</clipPath>
</defs>
</svg>
