<svg width="480" height="469" viewBox="0 0 480 469" fill="none" xmlns="http://www.w3.org/2000/svg">
<path d="M17.7773 0.444336H462.223C471.795 0.444565 479.555 8.20475 479.556 17.7773V468.444H0.444336V17.7773C0.444571 8.20475 8.20475 0.444571 17.7773 0.444336Z" stroke="url(#paint0_linear_2_144)" stroke-width="0.888889"/>
<rect x="11.1111" y="11.1111" width="457.778" height="123.556" rx="13.7778" stroke="white" stroke-width="0.888889"/>
<rect x="11.1111" y="142.667" width="457.778" height="123.556" rx="13.7778" stroke="white" stroke-width="0.888889"/>
<rect x="221.296" y="119.963" width="34.4444" height="34.4444" rx="17.2222" fill="#181612"/>
<rect x="221.296" y="119.963" width="34.4444" height="34.4444" rx="17.2222" stroke="#292824" stroke-width="1.11111"/>
<path d="M234.815 131.259V143.111M234.815 143.111L231.852 140.148M234.815 143.111L237.778 140.148M242.222 143.111V131.259M242.222 131.259L239.259 134.222M242.222 131.259L245.185 134.222" stroke="white" stroke-width="1.25" stroke-linecap="round" stroke-linejoin="round"/>
<rect x="11.1111" y="277.778" width="457.778" height="42.4444" rx="21.2222" stroke="white" stroke-width="0.888889"/>
<defs>
<linearGradient id="paint0_linear_2_144" x1="240" y1="0" x2="240" y2="468.889" gradientUnits="userSpaceOnUse">
<stop offset="0.8" stop-color="#F2D364"/>
<stop offset="1" stop-color="transparent"/>
</linearGradient>
</defs>
</svg>
