<svg xmlns="http://www.w3.org/2000/svg" version="1.1" xmlns:xlink="http://www.w3.org/1999/xlink" width="244" height="499"><svg id="SvgjsSvg1006" xmlns="http://www.w3.org/2000/svg" version="1.1" viewBox="0 0 244 499">
  <!-- Generator: Adobe Illustrator 29.5.0, SVG Export Plug-In . SVG Version: 2.1.0 Build 137)  -->
  <path d="M50.7,22.9C73.6,7.1,105.9-2.3,133.7.5c26.5,2.7,52.5,13.7,72.5,31l-52.6,167.2c-7.4.1-23.9-6.3-30.9-6.3-5.1,0-22,5.5-29.9,6.2L39.9,30.7c3.9-2.2,7.1-5.3,10.8-7.8ZM89.2,215.4c3.6,2.2,27.3-5.9,33.5-5.9,7.8,0,27.2,7.9,33,5.9l15.8-31c1.4-1.1,22.8,13,25.6,15.1,29.7,23,34.9,77.9,35.7,112.9l10.4,3.7v69c0,43-52.1,88.8-95.4,113.1l4.7-93.8s45-27,53.3-29.2c4.3-1.1,14.6,6.5,15.4,5.4l-1.5-55.3c-22.3,11.9-46.5,20.2-71.3,25.3l-5.7,21-20.3,11.9-22.2-12.2-5.5-20.7c-24.5-6.4-48.5-14.2-71.2-25.3l-1,56.3c5-2,8-8.7,14.3-6.8,6.9,3.3,54.9,29.6,54.9,29.6l6.2,93.9C56.3,476.7,0,428,0,385v-69l11.5-3.7c1.8-36.3,6.4-90.7,37-113.8,3.3-2.5,22.2-14.9,24.8-14.2l15.9,30.9Z"></path>
</svg><style>@media (prefers-color-scheme: light) { :root { filter: none; } }
@media (prefers-color-scheme: dark) { :root { filter: none; } }
</style></svg>